<?xml version="1.0" encoding="UTF-8"?>
<!DOCTYPE svg PUBLIC "-//W3C//DTD SVG 1.1//EN" "http://www.w3.org/Graphics/SVG/1.1/DTD/svg11.dtd">
<svg xmlns="http://www.w3.org/2000/svg" version="1.1" width="307px" height="77px" style="shape-rendering:geometricPrecision; text-rendering:geometricPrecision; image-rendering:optimizeQuality; fill-rule:evenodd; clip-rule:evenodd" xmlns:xlink="http://www.w3.org/1999/xlink">
<g><path style="opacity:1" fill="#fdfdfe" d="M -0.5,-0.5 C 101.833,-0.5 204.167,-0.5 306.5,-0.5C 306.5,25.1667 306.5,50.8333 306.5,76.5C 204.167,76.5 101.833,76.5 -0.5,76.5C -0.5,50.8333 -0.5,25.1667 -0.5,-0.5 Z"/></g>
<g><path style="opacity:1" fill="#fd3634" d="M 51.5,12.5 C 51.5,18.8333 51.5,25.1667 51.5,31.5C 57.8333,31.5 64.1667,31.5 70.5,31.5C 71.1667,31.5 71.5,31.8333 71.5,32.5C 71.7935,36.4367 71.4601,40.27 70.5,44C 63.8417,44.4996 57.175,44.6663 50.5,44.5C 50.5,51.1667 50.5,57.8333 50.5,64.5C 46.5,64.5 42.5,64.5 38.5,64.5C 38.5,57.8333 38.5,51.1667 38.5,44.5C 31.8333,44.5 25.1667,44.5 18.5,44.5C 17.5151,40.3656 17.1818,36.0323 17.5,31.5C 24.1667,31.5 30.8333,31.5 37.5,31.5C 37.3337,24.825 37.5004,18.1583 38,11.5C 42.0785,10.3705 46.2452,10.2039 50.5,11C 51.056,11.3826 51.3893,11.8826 51.5,12.5 Z"/></g>
<g><path style="opacity:1" fill="#bbb4b4" d="M 51.5,12.5 C 58.0562,16.656 60.3896,22.656 58.5,30.5C 62.7016,30.1832 66.7016,30.5166 70.5,31.5C 64.1667,31.5 57.8333,31.5 51.5,31.5C 51.5,25.1667 51.5,18.8333 51.5,12.5 Z"/></g>
<g><path style="opacity:1" fill="#dad6f2" d="M 133.5,25.5 C 133.5,33.1667 133.5,40.8333 133.5,48.5C 133.167,48.5 132.833,48.5 132.5,48.5C 132.579,47.0695 132.246,45.7362 131.5,44.5C 129.257,43.5258 126.924,43.1924 124.5,43.5C 124.5,42.5 124.5,41.5 124.5,40.5C 126.833,40.5 129.167,40.5 131.5,40.5C 131.5,39.1667 131.5,37.8333 131.5,36.5C 129.143,36.6633 126.81,36.4966 124.5,36C 132.473,35.1737 132.473,34.6737 124.5,34.5C 124.5,33.5 124.5,32.5 124.5,31.5C 127.167,31.5 129.833,31.5 132.5,31.5C 132.768,29.901 132.434,28.5676 131.5,27.5C 131.5,27.1667 131.5,26.8333 131.5,26.5C 132.167,26.1667 132.833,25.8333 133.5,25.5 Z"/></g>
<g><path style="opacity:1" fill="#6d5ac9" d="M 177.5,26.5 C 174.713,27.4767 171.713,27.81 168.5,27.5C 167.167,27.8333 165.833,28.1667 164.5,28.5C 165.058,27.2101 166.058,26.3768 167.5,26C 171.027,25.1925 174.36,25.3592 177.5,26.5 Z"/></g>
<g><path style="opacity:1" fill="#c9c4ec" d="M 249.5,25.5 C 249.5,33.1667 249.5,40.8333 249.5,48.5C 248.833,48.8333 248.167,49.1667 247.5,49.5C 247.5,42.1667 247.5,34.8333 247.5,27.5C 248.167,26.8333 248.833,26.1667 249.5,25.5 Z"/></g>
<g><path style="opacity:1" fill="#260fb0" d="M 93.5,25.5 C 95.604,25.2011 97.604,25.5344 99.5,26.5C 101.418,29.5843 102.751,32.9176 103.5,36.5C 103.859,38.4846 104.692,39.1513 106,38.5C 107.278,34.8347 108.444,31.168 109.5,27.5C 114.5,26.9969 114.167,26.6636 108.5,26.5C 110.863,24.9983 113.03,25.3316 115,27.5C 116.191,32.7674 116.691,38.1007 116.5,43.5C 116.5,45.5 116.5,47.5 116.5,49.5C 115.167,49.5 113.833,49.5 112.5,49.5C 112.656,45.4183 112.156,41.4183 111,37.5C 109.878,39.4068 109.045,41.4068 108.5,43.5C 107.841,45.1379 107.174,46.8045 106.5,48.5C 105.192,49.6256 103.858,49.6256 102.5,48.5C 102.528,44.3875 101.361,40.3875 99,36.5C 98.51,37.7932 98.3433,39.1266 98.5,40.5C 98.5,43.5 98.5,46.5 98.5,49.5C 96.5,49.5 94.5,49.5 92.5,49.5C 92.3893,48.8826 92.056,48.3826 91.5,48C 92.733,46.3023 93.3996,44.3023 93.5,42C 94.0911,37.181 94.4245,32.3477 94.5,27.5C 95.8734,27.6567 97.2068,27.49 98.5,27C 96.6183,26.8019 94.9516,26.3019 93.5,25.5 Z"/></g>
<g><path style="opacity:1" fill="#5e4dc5" d="M 131.5,26.5 C 131.5,26.8333 131.5,27.1667 131.5,27.5C 131.167,27.5 130.833,27.5 130.5,27.5C 126.702,26.5166 122.702,26.1832 118.5,26.5C 118.799,34.253 118.466,41.9196 117.5,49.5C 117.167,49.5 116.833,49.5 116.5,49.5C 116.5,47.5 116.5,45.5 116.5,43.5C 117.49,37.69 117.823,31.69 117.5,25.5C 122.363,25.1805 127.03,25.5139 131.5,26.5 Z"/></g>
<g><path style="opacity:1" fill="#b2aae4" d="M 130.5,27.5 C 126.833,27.5 123.167,27.5 119.5,27.5C 119.5,34.8333 119.5,42.1667 119.5,49.5C 118.833,49.5 118.167,49.5 117.5,49.5C 118.466,41.9196 118.799,34.253 118.5,26.5C 122.702,26.1832 126.702,26.5166 130.5,27.5 Z"/></g>
<g><path style="opacity:1" fill="#2810b0" d="M 130.5,27.5 C 130.833,27.5 131.167,27.5 131.5,27.5C 132.434,28.5676 132.768,29.901 132.5,31.5C 129.833,31.5 127.167,31.5 124.5,31.5C 124.5,32.5 124.5,33.5 124.5,34.5C 132.473,34.6737 132.473,35.1737 124.5,36C 126.81,36.4966 129.143,36.6633 131.5,36.5C 131.5,37.8333 131.5,39.1667 131.5,40.5C 129.167,40.5 126.833,40.5 124.5,40.5C 124.5,41.5 124.5,42.5 124.5,43.5C 126.924,43.1924 129.257,43.5258 131.5,44.5C 132.246,45.7362 132.579,47.0695 132.5,48.5C 128.366,49.4849 124.032,49.8182 119.5,49.5C 119.5,42.1667 119.5,34.8333 119.5,27.5C 123.167,27.5 126.833,27.5 130.5,27.5 Z"/></g>
<g><path style="opacity:1" fill="#6454c7" d="M 133.5,25.5 C 137.042,25.1872 140.375,25.5206 143.5,26.5C 143.158,27.3382 142.492,27.6716 141.5,27.5C 139.393,26.5318 137.059,26.1984 134.5,26.5C 134.175,33.6866 134.509,40.6866 135.5,47.5C 135.5,48.1667 135.5,48.8333 135.5,49.5C 134.508,49.6716 133.842,49.3382 133.5,48.5C 133.5,40.8333 133.5,33.1667 133.5,25.5 Z"/></g>
<g><path style="opacity:1" fill="#a9a1e0" d="M 141.5,27.5 C 139.5,27.5 137.5,27.5 135.5,27.5C 135.5,34.1667 135.5,40.8333 135.5,47.5C 134.509,40.6866 134.175,33.6866 134.5,26.5C 137.059,26.1984 139.393,26.5318 141.5,27.5 Z"/></g>
<g><path style="opacity:1" fill="#230baf" d="M 143.5,26.5 C 147.02,27.3528 149.687,29.3528 151.5,32.5C 152.833,36.1667 152.833,39.8333 151.5,43.5C 147.569,48.8157 142.235,50.8157 135.5,49.5C 135.5,48.8333 135.5,48.1667 135.5,47.5C 135.5,40.8333 135.5,34.1667 135.5,27.5C 137.5,27.5 139.5,27.5 141.5,27.5C 142.492,27.6716 143.158,27.3382 143.5,26.5 Z"/></g>
<g><path style="opacity:1" fill="#6e5ecb" d="M 153.5,25.5 C 156.082,25.0254 158.082,25.6921 159.5,27.5C 158.167,27.5 156.833,27.5 155.5,27.5C 155.5,34.8333 155.5,42.1667 155.5,49.5C 154.508,49.6716 153.842,49.3382 153.5,48.5C 153.5,40.8333 153.5,33.1667 153.5,25.5 Z"/></g>
<g><path style="opacity:1" fill="#1b03ad" d="M 159.5,27.5 C 160.615,34.8216 160.615,42.155 159.5,49.5C 158.167,49.5 156.833,49.5 155.5,49.5C 155.5,42.1667 155.5,34.8333 155.5,27.5C 156.833,27.5 158.167,27.5 159.5,27.5 Z"/></g>
<g><path style="opacity:1" fill="#2b13b1" d="M 177.5,26.5 C 180.492,27.1319 181.159,28.7985 179.5,31.5C 176.118,31.3406 172.785,31.8406 169.5,33C 167.522,35.4973 167.022,38.3307 168,41.5C 168.75,42.1258 169.584,42.6258 170.5,43C 173.167,43 175.833,43 178.5,43C 180.245,44.692 180.578,46.5253 179.5,48.5C 175.892,49.5932 172.225,49.7599 168.5,49C 166.416,48.3028 164.749,47.1361 163.5,45.5C 159.931,37.9881 161.598,31.9881 168.5,27.5C 171.713,27.81 174.713,27.4767 177.5,26.5 Z"/></g>
<g><path style="opacity:1" fill="#230caf" d="M 188.5,25.5 C 195.865,24.6783 200.865,27.6783 203.5,34.5C 204.686,36.8744 204.686,39.2078 203.5,41.5C 201.042,48.7297 196.042,51.2297 188.5,49C 186.934,48.3918 185.6,47.5585 184.5,46.5C 181.263,40.132 181.929,34.2987 186.5,29C 188.715,27.9562 191.048,27.2895 193.5,27C 191.618,26.8019 189.952,26.3019 188.5,25.5 Z"/></g>
<g><path style="opacity:1" fill="#6453c7" d="M 211.5,27.5 C 210.833,27.5 210.167,27.5 209.5,27.5C 208.432,26.5655 207.099,26.2322 205.5,26.5C 205.175,33.6866 205.509,40.6866 206.5,47.5C 206.5,48.1667 206.5,48.8333 206.5,49.5C 204.902,47.1433 203.902,44.4766 203.5,41.5C 204.686,39.2078 204.686,36.8744 203.5,34.5C 204.477,31.7131 204.81,28.7131 204.5,25.5C 206.527,25.3379 208.527,25.5045 210.5,26C 211.056,26.3826 211.389,26.8826 211.5,27.5 Z"/></g>
<g><path style="opacity:1" fill="#b7b0e6" d="M 209.5,27.5 C 208.5,27.5 207.5,27.5 206.5,27.5C 206.5,34.1667 206.5,40.8333 206.5,47.5C 205.509,40.6866 205.175,33.6866 205.5,26.5C 207.099,26.2322 208.432,26.5655 209.5,27.5 Z"/></g>
<g><path style="opacity:1" fill="#2009af" d="M 209.5,27.5 C 210.167,27.5 210.833,27.5 211.5,27.5C 213.735,30.2911 215.735,33.2911 217.5,36.5C 217.842,37.3382 218.508,37.6716 219.5,37.5C 220.636,36.3193 220.969,32.9859 220.5,27.5C 221.5,27.5 222.5,27.5 223.5,27.5C 223.833,27.5 224.167,27.5 224.5,27.5C 225.492,34.6476 225.825,41.9809 225.5,49.5C 223.473,49.6621 221.473,49.4955 219.5,49C 218.944,48.6174 218.611,48.1174 218.5,47.5C 218.938,47.5654 219.272,47.3988 219.5,47C 217,43.1667 214.5,39.3333 212,35.5C 211.517,36.448 211.351,37.448 211.5,38.5C 211.5,42.1667 211.5,45.8333 211.5,49.5C 209.833,49.5 208.167,49.5 206.5,49.5C 206.5,48.8333 206.5,48.1667 206.5,47.5C 206.5,40.8333 206.5,34.1667 206.5,27.5C 207.5,27.5 208.5,27.5 209.5,27.5 Z"/></g>
<g><path style="opacity:1" fill="#5f4ec6" d="M 224.5,27.5 C 224.167,27.5 223.833,27.5 223.5,27.5C 222.432,26.5655 221.099,26.2322 219.5,26.5C 219.5,30.1667 219.5,33.8333 219.5,37.5C 218.508,37.6716 217.842,37.3382 217.5,36.5C 218.482,33.0381 218.815,29.3714 218.5,25.5C 221.082,25.0254 223.082,25.6921 224.5,27.5 Z"/></g>
<g><path style="opacity:1" fill="#b7b0e5" d="M 223.5,27.5 C 222.5,27.5 221.5,27.5 220.5,27.5C 220.969,32.9859 220.636,36.3193 219.5,37.5C 219.5,33.8333 219.5,30.1667 219.5,26.5C 221.099,26.2322 222.432,26.5655 223.5,27.5 Z"/></g>
<g><path style="opacity:1" fill="#8d81d6" d="M 227.5,25.5 C 228.952,26.3019 230.618,26.8019 232.5,27C 231.207,27.49 229.873,27.6567 228.5,27.5C 228.795,34.5878 228.462,41.5878 227.5,48.5C 226.167,40.8333 226.167,33.1667 227.5,25.5 Z"/></g>
<g><path style="opacity:1" fill="#2812b1" d="M 227.5,25.5 C 229.604,25.2011 231.604,25.5344 233.5,26.5C 235.526,29.5178 237.526,32.5178 239.5,35.5C 240.504,36.6828 241.338,38.0161 242,39.5C 242.499,35.5138 242.666,31.5138 242.5,27.5C 244.167,27.5 245.833,27.5 247.5,27.5C 247.5,34.8333 247.5,42.1667 247.5,49.5C 245.473,49.6621 243.473,49.4955 241.5,49C 239,45.1667 236.5,41.3333 234,37.5C 233.501,41.4862 233.334,45.4862 233.5,49.5C 231.265,49.7947 229.265,49.4614 227.5,48.5C 228.462,41.5878 228.795,34.5878 228.5,27.5C 229.873,27.6567 231.207,27.49 232.5,27C 230.618,26.8019 228.952,26.3019 227.5,25.5 Z"/></g>
<g><path style="opacity:1" fill="#8577d3" d="M 247.5,27.5 C 245.833,27.5 244.167,27.5 242.5,27.5C 242.666,31.5138 242.499,35.5138 242,39.5C 241.338,38.0161 240.504,36.6828 239.5,35.5C 240.479,32.3752 240.813,29.0419 240.5,25.5C 243.388,24.9898 245.721,25.6565 247.5,27.5 Z"/></g>
<g><path style="opacity:1" fill="#6050c6" d="M 249.5,25.5 C 254.619,24.8969 259.285,25.5636 263.5,27.5C 262.833,27.5 262.167,27.5 261.5,27.5C 258.038,26.5184 254.371,26.185 250.5,26.5C 250.175,33.6866 250.509,40.6866 251.5,47.5C 251.5,48.1667 251.5,48.8333 251.5,49.5C 250.508,49.6716 249.842,49.3382 249.5,48.5C 249.5,40.8333 249.5,33.1667 249.5,25.5 Z"/></g>
<g><path style="opacity:1" fill="#aaa3e0" d="M 261.5,27.5 C 258.167,27.5 254.833,27.5 251.5,27.5C 251.5,34.1667 251.5,40.8333 251.5,47.5C 250.509,40.6866 250.175,33.6866 250.5,26.5C 254.371,26.185 258.038,26.5184 261.5,27.5 Z"/></g>
<g><path style="opacity:1" fill="#2c12b0" d="M 261.5,27.5 C 262.167,27.5 262.833,27.5 263.5,27.5C 263.5,28.8333 263.5,30.1667 263.5,31.5C 261.167,31.5 258.833,31.5 256.5,31.5C 256.5,32.5 256.5,33.5 256.5,34.5C 258.5,34.5 260.5,34.5 262.5,34.5C 263.15,36.4352 263.483,38.4352 263.5,40.5C 261.167,40.5 258.833,40.5 256.5,40.5C 256.5,41.5 256.5,42.5 256.5,43.5C 258.833,43.5 261.167,43.5 263.5,43.5C 263.5,45.5 263.5,47.5 263.5,49.5C 259.5,49.5 255.5,49.5 251.5,49.5C 251.5,48.8333 251.5,48.1667 251.5,47.5C 251.5,40.8333 251.5,34.1667 251.5,27.5C 254.833,27.5 258.167,27.5 261.5,27.5 Z"/></g>
<g><path style="opacity:1" fill="#381fb4" d="M 291.5,49.5 C 291.5,43.5 291.5,37.5 291.5,31.5C 290.5,31.5 289.5,31.5 288.5,31.5C 284.954,32.2726 281.454,32.2726 278,31.5C 272.448,32.5938 270.448,35.9271 272,41.5C 273.897,43.0163 276.064,43.683 278.5,43.5C 275.791,45.1316 276.125,45.6316 279.5,45C 281.619,44.6582 281.953,43.8249 280.5,42.5C 283.654,43.4739 284.654,45.4739 283.5,48.5C 276.804,50.719 270.97,49.3857 266,44.5C 265.209,43.255 264.709,41.9217 264.5,40.5C 266.148,30.8541 271.814,26.1875 281.5,26.5C 287.81,25.2479 294.143,25.2479 300.5,26.5C 301.309,28.0709 301.643,29.7376 301.5,31.5C 299.833,31.5 298.167,31.5 296.5,31.5C 296.5,37.5 296.5,43.5 296.5,49.5C 294.833,49.5 293.167,49.5 291.5,49.5 Z"/></g>
<g><path style="opacity:1" fill="#9487d8" d="M 108.5,26.5 C 114.167,26.6636 114.5,26.9969 109.5,27.5C 108.444,31.168 107.278,34.8347 106,38.5C 104.692,39.1513 103.859,38.4846 103.5,36.5C 105.167,33.1667 106.833,29.8333 108.5,26.5 Z"/></g>
<g><path style="opacity:1" fill="#9789d9" d="M 159.5,27.5 C 160.29,28.6085 160.79,29.9419 161,31.5C 162.039,30.2899 163.206,29.2899 164.5,28.5C 165.833,28.1667 167.167,27.8333 168.5,27.5C 161.598,31.9881 159.931,37.9881 163.5,45.5C 162.542,45.0472 161.708,44.3805 161,43.5C 160.809,45.7078 160.309,47.7078 159.5,49.5C 160.615,42.155 160.615,34.8216 159.5,27.5 Z"/></g>
<g><path style="opacity:1" fill="#f6f5fb" d="M 143.5,32.5 C 146.434,36.828 145.768,40.4947 141.5,43.5C 140.355,39.6888 140.188,35.6888 141,31.5C 141.671,32.2524 142.504,32.5858 143.5,32.5 Z"/></g>
<g><path style="opacity:1" fill="#f4f2fb" d="M 196.5,35.5 C 196.982,38.8306 195.982,41.4973 193.5,43.5C 187.844,43.1326 186.011,40.1326 188,34.5C 191.547,30.2708 194.38,30.6041 196.5,35.5 Z"/></g>
<g><path style="opacity:1" fill="#8776d3" d="M 281.5,26.5 C 271.814,26.1875 266.148,30.8541 264.5,40.5C 264.167,40.5 263.833,40.5 263.5,40.5C 263.483,38.4352 263.15,36.4352 262.5,34.5C 264.685,32.0525 267.018,29.5525 269.5,27C 273.592,25.3682 277.592,25.2015 281.5,26.5 Z"/></g>
<g><path style="opacity:1" fill="#8e81d6" d="M 288.5,31.5 C 289.5,31.5 290.5,31.5 291.5,31.5C 291.5,37.5 291.5,43.5 291.5,49.5C 290.504,49.5858 289.671,49.2524 289,48.5C 288.501,42.8431 288.334,37.1764 288.5,31.5 Z"/></g>
<g><path style="opacity:1" fill="#b8b0b0" d="M 71.5,32.5 C 74.1303,34.6281 76.6303,36.9614 79,39.5C 79.4988,43.4862 79.6655,47.4862 79.5,51.5C 72.5,51.5 65.5,51.5 58.5,51.5C 58.5,58.5 58.5,65.5 58.5,72.5C 49.7029,74.6858 43.0362,72.0191 38.5,64.5C 42.5,64.5 46.5,64.5 50.5,64.5C 50.5,57.8333 50.5,51.1667 50.5,44.5C 57.175,44.6663 63.8417,44.4996 70.5,44C 71.4601,40.27 71.7935,36.4367 71.5,32.5 Z"/></g>
<g><path style="opacity:1" fill="#8373d2" d="M 188.5,25.5 C 189.952,26.3019 191.618,26.8019 193.5,27C 191.048,27.2895 188.715,27.9562 186.5,29C 181.929,34.2987 181.263,40.132 184.5,46.5C 182.827,45.657 181.66,44.3237 181,42.5C 178.639,34.5639 181.139,28.8972 188.5,25.5 Z"/></g>
<g><path style="opacity:1" fill="#968ad9" d="M 93.5,25.5 C 94.9516,26.3019 96.6183,26.8019 98.5,27C 97.2068,27.49 95.8734,27.6567 94.5,27.5C 94.4245,32.3477 94.0911,37.181 93.5,42C 93.3996,44.3023 92.733,46.3023 91.5,48C 92.056,48.3826 92.3893,48.8826 92.5,49.5C 91.2749,48.8478 90.6083,47.6811 90.5,46C 90.9968,38.9499 91.9968,32.1166 93.5,25.5 Z"/></g>
<g><path style="opacity:1" fill="#8c7ed5" d="M 193.5,43.5 C 195.982,41.4973 196.982,38.8306 196.5,35.5C 197.117,35.3893 197.617,35.056 198,34.5C 200.51,40.9895 198.343,44.4895 191.5,45C 192.416,44.7216 193.082,44.2216 193.5,43.5 Z"/></g>
<g><path style="opacity:1" fill="#604fc6" d="M 218.5,47.5 C 215.925,44.681 213.592,41.681 211.5,38.5C 211.351,37.448 211.517,36.448 212,35.5C 214.5,39.3333 217,43.1667 219.5,47C 219.272,47.3988 218.938,47.5654 218.5,47.5 Z"/></g>
<g><path style="opacity:1" fill="#6a5aca" d="M 102.5,48.5 C 100.975,45.9209 99.6414,43.2542 98.5,40.5C 98.3433,39.1266 98.51,37.7932 99,36.5C 101.361,40.3875 102.528,44.3875 102.5,48.5 Z"/></g>
<g><path style="opacity:1" fill="#9286d8" d="M 112.5,49.5 C 111.504,49.5858 110.671,49.2524 110,48.5C 109.802,46.6183 109.302,44.9516 108.5,43.5C 109.045,41.4068 109.878,39.4068 111,37.5C 112.156,41.4183 112.656,45.4183 112.5,49.5 Z"/></g>
<g><path style="opacity:1" fill="#8676d3" d="M 143.5,32.5 C 145.411,32.5743 146.578,33.5743 147,35.5C 148.437,40.5762 146.604,43.9095 141.5,45.5C 140.537,45.0302 140.537,44.3635 141.5,43.5C 145.768,40.4947 146.434,36.828 143.5,32.5 Z"/></g>
<g><path style="opacity:1" fill="#beb8e8" d="M 153.5,25.5 C 153.5,33.1667 153.5,40.8333 153.5,48.5C 152.833,46.8333 152.167,45.1667 151.5,43.5C 152.833,39.8333 152.833,36.1667 151.5,32.5C 152.167,30.1667 152.833,27.8333 153.5,25.5 Z"/></g>
<g><path style="opacity:1" fill="#8979d4" d="M 280.5,42.5 C 281.953,43.8249 281.619,44.6582 279.5,45C 276.125,45.6316 275.791,45.1316 278.5,43.5C 278.842,42.6618 279.508,42.3284 280.5,42.5 Z"/></g>
<g><path style="opacity:1" fill="#bfb1b1" d="M 18.5,44.5 C 25.1667,44.5 31.8333,44.5 38.5,44.5C 38.5,51.1667 38.5,57.8333 38.5,64.5C 37.5166,60.7016 37.1832,56.7016 37.5,52.5C 33.4862,52.6655 29.4862,52.4988 25.5,52C 22.9614,49.6303 20.6281,47.1303 18.5,44.5 Z"/></g>
<g><path style="opacity:1" fill="#ff3b39" d="M 91.5,55.5 C 159.833,55.5 228.167,55.5 296.5,55.5C 296.5,57.1667 296.5,58.8333 296.5,60.5C 228.167,60.5 159.833,60.5 91.5,60.5C 91.5,58.8333 91.5,57.1667 91.5,55.5 Z"/></g>
</svg>
